# xmcd CD database file
#
# Track frame offsets:
#	150
#	17280
#	34274
#
# Disc length: 726 seconds
#
# Revision: 4
# Processed by: cddbd v1.5.2PL0 Copyright (c) Steve Scherf et al.
# Submitted via: CDex 1.90
#
DISCID=1602d403
DTITLE=Bjork - It's In Our Hands [CDS 3)
DYEAR=2002
DGENRE=Trip-Hop
TTITLE0=It's In Our Hands (Soft Pink Truth Mix)
TTITLE1=It's In Our Hands (Arcade Mix)
TTITLE2=So Broken (Live)
EXTD=YEAR: 2002
EXTT0=
EXTT1=
EXTT2=
PLAYORDER=
